<svg width="18" height="22" viewBox="0 0 18 22" fill="none" xmlns="http://www.w3.org/2000/svg">
<path d="M15.6389 7.29567H14.4574V5.57623C14.4574 2.50154 12.0092 0 9 0C5.99082 0 3.54258 2.50154 3.54258 5.57623V7.29567H2.36108C1.05913 7.29567 0 8.37786 0 9.70782V19.5875C0 20.9178 1.05913 22 2.36108 22H15.6389C16.9409 22 18 20.9178 18 19.5875V9.70782C18 8.37787 16.9409 7.29567 15.6389 7.29567ZM5.62625 5.57623C5.62625 3.67556 7.13982 2.12903 9 2.12903C10.8602 2.12903 12.3737 3.67556 12.3737 5.57623V7.29567H5.62625V5.57623ZM15.9163 19.5875C15.9163 19.7438 15.7919 19.871 15.6389 19.871H2.36108C2.20813 19.871 2.08367 19.7438 2.08367 19.5875V9.70782C2.08367 9.55154 2.20813 9.42471 2.36108 9.42471H15.6389C15.7919 9.42471 15.9163 9.55153 15.9163 9.70782V19.5875Z" fill="#8E8E93"/>
<path d="M9 16.3822C9.9375 16.3822 10.6975 15.6057 10.6975 14.6477C10.6975 13.6898 9.9375 12.9133 9 12.9133C8.0625 12.9133 7.3025 13.6898 7.3025 14.6477C7.3025 15.6057 8.0625 16.3822 9 16.3822Z" fill="#8E8E93"/>
</svg>
