<svg width="24" height="24" viewBox="0 0 24 24" fill="none" xmlns="http://www.w3.org/2000/svg">
<g clip-path="url(#clip0_33_1159)">
<path d="M12 9C11.4726 9 10.957 9.1564 10.5185 9.44941C10.08 9.74243 9.73816 10.1589 9.53632 10.6462C9.33449 11.1334 9.28168 11.6696 9.38457 12.1869C9.48747 12.7042 9.74144 13.1793 10.1144 13.5523C10.4873 13.9252 10.9625 14.1792 11.4798 14.2821C11.997 14.385 12.5332 14.3322 13.0205 14.1303C13.5078 13.9285 13.9242 13.5867 14.2173 13.1482C14.5103 12.7097 14.6667 12.1941 14.6667 11.6667C14.6667 10.9594 14.3857 10.2811 13.8856 9.78105C13.3855 9.28095 12.7072 9 12 9ZM2.66667 9C2.13925 9 1.62368 9.1564 1.18515 9.44941C0.746616 9.74243 0.404823 10.1589 0.202989 10.6462C0.00115542 11.1334 -0.0516535 11.6696 0.0512405 12.1869C0.154134 12.7042 0.40811 13.1793 0.78105 13.5523C1.15399 13.9252 1.62914 14.1792 2.14643 14.2821C2.66371 14.385 3.19989 14.3322 3.68716 14.1303C4.17443 13.9285 4.5909 13.5867 4.88392 13.1482C5.17694 12.7097 5.33333 12.1941 5.33333 11.6667C5.33333 10.9594 5.05238 10.2811 4.55229 9.78105C4.05219 9.28095 3.37391 9 2.66667 9ZM21.3333 9C20.8059 9 20.2903 9.1564 19.8518 9.44941C19.4133 9.74243 19.0715 10.1589 18.8697 10.6462C18.6678 11.1334 18.615 11.6696 18.7179 12.1869C18.8208 12.7042 19.0748 13.1793 19.4477 13.5523C19.8207 13.9252 20.2958 14.1792 20.8131 14.2821C21.3304 14.385 21.8666 14.3322 22.3538 14.1303C22.8411 13.9285 23.2576 13.5867 23.5506 13.1482C23.8436 12.7097 24 12.1941 24 11.6667C24 10.9594 23.719 10.2811 23.219 9.78105C22.7189 9.28095 22.0406 9 21.3333 9Z" fill="#979797"/>
</g>
<defs>
<clipPath id="clip0_33_1159">
<rect width="24" height="24" fill="white"/>
</clipPath>
</defs>
</svg>
