<svg width="1125" height="2436" viewBox="0 0 1125 2436" fill="none" xmlns="http://www.w3.org/2000/svg">
<g clip-path="url(#clip0_522_1398)">
<rect x="629" y="1875" width="126" height="380" transform="rotate(-90 629 1875)" fill="#8988F9"/>
<rect x="884" y="1250" width="125" height="500" fill="#8988F9"/>
<rect x="884" y="625" width="125" height="500" fill="#8988F9"/>
<rect x="629" y="625" width="125" height="380" transform="rotate(-90 629 625)" fill="#8988F9"/>
<rect x="629" y="625" width="255" height="8" fill="#7270F4"/>
<rect x="884" y="1125" width="125" height="8" fill="#7270F4"/>
<rect x="1009" y="1250" width="10" height="625" fill="#5E5CE6"/>
<rect x="629" y="1875" width="390" height="8" fill="#7270F4"/>
<rect x="1009" y="500" width="10" height="633" fill="#5E5CE6"/>
<rect x="117" y="1875" width="126" height="380" transform="rotate(-90 117 1875)" fill="#8988F9"/>
<rect x="117" y="1250" width="125" height="500" fill="#8988F9"/>
<rect x="117" y="1125" width="135" height="8" fill="#7270F4"/>
<rect x="242" y="625" width="10" height="500" fill="#5E5CE6"/>
<rect x="242" y="1250" width="10" height="499" fill="#5E5CE6"/>
<rect x="497" y="1749" width="10" height="126" fill="#5E5CE6"/>
<rect x="117" y="625" width="125" height="500" fill="#8988F9"/>
<rect x="252" y="625" width="245" height="8" fill="#7270F4"/>
<rect x="497" y="500" width="10" height="133" fill="#5E5CE6"/>
<rect x="117" y="625" width="125" height="380" transform="rotate(-90 117 625)" fill="#8988F9"/>
<rect x="117" y="1875" width="390" height="8" fill="#7270F4"/>
<rect x="372" y="925" width="100" height="280" transform="rotate(-90 372 925)" fill="#8988F9"/>
<rect x="474" y="1025" width="100" height="280" transform="rotate(-90 474 1025)" fill="#8988F9"/>
<rect x="474" y="1025" width="290" height="8" fill="#7270F4"/>
<rect x="372" y="925" width="102" height="8" fill="#7270F4"/>
<rect x="652" y="825" width="10" height="100" fill="#5E5CE6"/>
<rect x="754" y="925" width="10" height="100" fill="#5E5CE6"/>
<rect x="652" y="1450" width="100" height="280" transform="rotate(90 652 1450)" fill="#8988F9"/>
<rect x="754" y="1350" width="100" height="280" transform="rotate(90 754 1350)" fill="#8988F9"/>
<rect x="372" y="1550" width="290" height="8" fill="#7270F4"/>
<rect x="652" y="1450" width="112" height="8" fill="#7270F4"/>
<rect x="652" y="1450" width="10" height="100" fill="#5E5CE6"/>
<rect x="754" y="1350" width="10" height="100" fill="#5E5CE6"/>
<rect y="413" width="25" height="1125" transform="rotate(-90 0 413)" fill="#E2E2E2"/>
<rect x="-60" y="303" width="245" height="8" fill="#7270F4"/>
<rect x="185" y="178" width="10" height="133" fill="#5E5CE6"/>
<rect x="-195" y="303" width="125" height="380" transform="rotate(-90 -195 303)" fill="#8988F9"/>
<rect x="375" y="332" width="245" height="8" fill="#7270F4"/>
<rect x="620" y="207" width="10" height="133" fill="#5E5CE6"/>
<rect x="375" y="332" width="125" height="245" transform="rotate(-90 375 332)" fill="#8988F9"/>
<rect x="794" y="281" width="245" height="8" fill="#7270F4"/>
<rect x="1039" y="156" width="10" height="133" fill="#5E5CE6"/>
<rect x="794" y="281" width="125" height="245" transform="rotate(-90 794 281)" fill="#8988F9"/>
<rect x="246" width="25" height="388" fill="#E2E2E2"/>
</g>
<defs>
<clipPath id="clip0_522_1398">
<rect width="1125" height="2436" fill="white"/>
</clipPath>
</defs>
</svg>
