<svg width="20" height="20" viewBox="0 0 20 20" fill="none" xmlns="http://www.w3.org/2000/svg">
<path d="M7.5 9.58314L9.16667 11.2498L12.9167 7.49981M16.6667 9.99981C16.6667 14.0902 12.205 17.0651 10.5817 18.0122C10.3972 18.1198 10.3049 18.1737 10.1747 18.2016C10.0737 18.2232 9.9263 18.2232 9.82527 18.2016C9.69508 18.1737 9.60283 18.1198 9.41834 18.0122C7.79497 17.0651 3.33333 14.0902 3.33333 9.99981V6.01448C3.33333 5.34822 3.33333 5.01509 3.4423 4.72873C3.53856 4.47576 3.69499 4.25004 3.89805 4.07109C4.12791 3.86851 4.43983 3.75154 5.06367 3.5176L9.53184 1.84204C9.70508 1.77707 9.79171 1.74459 9.88082 1.73171C9.95986 1.72029 10.0401 1.72029 10.1192 1.73171C10.2083 1.74459 10.2949 1.77707 10.4682 1.84204L14.9363 3.5176C15.5602 3.75154 15.8721 3.86851 16.102 4.07109C16.305 4.25004 16.4614 4.47576 16.5577 4.72873C16.6667 5.01509 16.6667 5.34822 16.6667 6.01448V9.99981Z" stroke="#E2E2E2" stroke-opacity="0.75" stroke-width="2" stroke-linecap="round" stroke-linejoin="round"/>
</svg>
