<svg width="20" height="20" viewBox="0 0 20 20" fill="none" xmlns="http://www.w3.org/2000/svg">
<g clip-path="url(#clip0_226_1445)">
<path d="M5.07864 9.35717C5.02684 9.02336 4.99997 8.68138 4.99997 8.33317C4.99997 4.65127 8.00437 1.6665 11.7105 1.6665C15.4166 1.6665 18.421 4.65127 18.421 8.33317C18.421 9.1649 18.2677 9.96105 17.9876 10.6953C17.9295 10.8477 17.9004 10.924 17.8872 10.9835C17.8741 11.0425 17.869 11.084 17.8676 11.1444C17.8662 11.2053 17.8744 11.2725 17.891 11.4068L18.2265 14.1319C18.2628 14.4269 18.2809 14.5745 18.2319 14.6817C18.1889 14.7756 18.1125 14.8503 18.0176 14.8911C17.9092 14.9377 17.7622 14.9161 17.4681 14.873L14.8137 14.4839C14.6751 14.4636 14.6058 14.4535 14.5427 14.4538C14.4803 14.4542 14.4371 14.4588 14.376 14.4716C14.3142 14.4846 14.2353 14.5142 14.0775 14.5733C13.3414 14.849 12.5437 14.9998 11.7105 14.9998C11.362 14.9998 11.0197 14.9734 10.6856 14.9226M6.35965 18.3332C8.8304 18.3332 10.8333 16.2811 10.8333 13.7498C10.8333 11.2185 8.8304 9.1665 6.35965 9.1665C3.8889 9.1665 1.88596 11.2185 1.88596 13.7498C1.88596 14.2587 1.9669 14.7481 2.11629 15.2054C2.17944 15.3988 2.21102 15.4954 2.22138 15.5615C2.2322 15.6304 2.2341 15.6691 2.23007 15.7388C2.22621 15.8055 2.20951 15.8809 2.17612 16.0318L1.66667 18.3332L4.16233 17.9923C4.29855 17.9737 4.36666 17.9644 4.42614 17.9648C4.48877 17.9653 4.522 17.9687 4.58342 17.9809C4.64175 17.9925 4.72847 18.0231 4.90189 18.0843C5.35883 18.2456 5.84926 18.3332 6.35965 18.3332Z" stroke="#E2E2E2" stroke-opacity="0.75" stroke-width="2" stroke-linecap="round" stroke-linejoin="round"/>
</g>
<defs>
<clipPath id="clip0_226_1445">
<rect width="20" height="20" fill="white"/>
</clipPath>
</defs>
</svg>
