<svg width="20" height="20" viewBox="0 0 20 20" fill="none" xmlns="http://www.w3.org/2000/svg">
<path d="M1.66667 6.5C1.66667 5.09987 1.66667 4.3998 1.93915 3.86502C2.17883 3.39462 2.56128 3.01217 3.03169 2.77248C3.56647 2.5 4.26653 2.5 5.66667 2.5H14.3333C15.7335 2.5 16.4335 2.5 16.9683 2.77248C17.4387 3.01217 17.8212 3.39462 18.0608 3.86502C18.3333 4.3998 18.3333 5.09987 18.3333 6.5V13.5C18.3333 14.9001 18.3333 15.6002 18.0608 16.135C17.8212 16.6054 17.4387 16.9878 16.9683 17.2275C16.4335 17.5 15.7335 17.5 14.3333 17.5H5.66667C4.26653 17.5 3.56647 17.5 3.03169 17.2275C2.56128 16.9878 2.17883 16.6054 1.93915 16.135C1.66667 15.6002 1.66667 14.9001 1.66667 13.5V6.5Z" stroke="#E2E2E2" stroke-opacity="0.75" stroke-width="2" stroke-linecap="round" stroke-linejoin="round"/>
<path d="M10 13.3333C11.8409 13.3333 13.3333 11.8409 13.3333 10C13.3333 8.15905 11.8409 6.66667 10 6.66667C8.15905 6.66667 6.66667 8.15905 6.66667 10C6.66667 11.8409 8.15905 13.3333 10 13.3333Z" stroke="#E2E2E2" stroke-opacity="0.75" stroke-width="2" stroke-linecap="round" stroke-linejoin="round"/>
</svg>
