<svg width="12" height="16" viewBox="0 0 12 16" fill="none" xmlns="http://www.w3.org/2000/svg">
<g clip-path="url(#clip0_210_1277)">
<path d="M6 -5.28579e-05C4.46193 -0.0524129 2.96599 0.508017 1.84092 1.55808C0.715856 2.60814 0.0537122 4.06192 0 5.59995C0 9.79995 6 15.9999 6 15.9999C6 15.9999 12 9.79995 12 5.59995C11.9463 4.06192 11.2841 2.60814 10.1591 1.55808C9.03401 0.508017 7.53807 -0.0524129 6 -5.28579e-05ZM6 7.59995C5.45084 7.61804 4.9169 7.41768 4.51521 7.04279C4.11351 6.6679 3.87682 6.14905 3.857 5.59995C3.87682 5.05085 4.11351 4.532 4.51521 4.1571C4.9169 3.78221 5.45084 3.58186 6 3.59995C6.54916 3.58186 7.0831 3.78221 7.48479 4.1571C7.88649 4.532 8.12318 5.05085 8.143 5.59995C8.12318 6.14905 7.88649 6.6679 7.48479 7.04279C7.0831 7.41768 6.54916 7.61804 6 7.59995Z" fill="#8E8E93"/>
</g>
<defs>
<clipPath id="clip0_210_1277">
<rect width="12" height="16" fill="white"/>
</clipPath>
</defs>
</svg>
