<svg width="20" height="20" viewBox="0 0 20 20" fill="none" xmlns="http://www.w3.org/2000/svg">
<g clip-path="url(#clip0_226_1461)">
<path d="M5 4.99984L6.66667 3.33317M6.66667 3.33317L5 1.6665M6.66667 3.33317H5C3.15905 3.33317 1.66667 4.82555 1.66667 6.6665M15 14.9998L13.3333 16.6665M13.3333 16.6665L15 18.3332M13.3333 16.6665H15C16.8409 16.6665 18.3333 15.1741 18.3333 13.3332M8.49085 5.4165C9.04591 3.25997 11.0035 1.6665 13.3333 1.6665C16.0948 1.6665 18.3333 3.90508 18.3333 6.6665C18.3333 8.99629 16.7399 10.9539 14.5834 11.509M11.6667 13.3332C11.6667 16.0946 9.42809 18.3332 6.66667 18.3332C3.90524 18.3332 1.66667 16.0946 1.66667 13.3332C1.66667 10.5717 3.90524 8.33317 6.66667 8.33317C9.42809 8.33317 11.6667 10.5717 11.6667 13.3332Z" stroke="#E2E2E2" stroke-opacity="0.75" stroke-width="2" stroke-linecap="round" stroke-linejoin="round"/>
</g>
<defs>
<clipPath id="clip0_226_1461">
<rect width="20" height="20" fill="white"/>
</clipPath>
</defs>
</svg>
