<svg width="28" height="28" viewBox="0 0 28 28" fill="none" xmlns="http://www.w3.org/2000/svg">
<path d="M14 15.1663C14.6443 15.1663 15.1667 14.644 15.1667 13.9997C15.1667 13.3553 14.6443 12.833 14 12.833C13.3557 12.833 12.8333 13.3553 12.8333 13.9997C12.8333 14.644 13.3557 15.1663 14 15.1663Z" stroke="#8988F9" stroke-width="2" stroke-linecap="round" stroke-linejoin="round"/>
<path d="M22.1667 15.1663C22.811 15.1663 23.3333 14.644 23.3333 13.9997C23.3333 13.3553 22.811 12.833 22.1667 12.833C21.5223 12.833 21 13.3553 21 13.9997C21 14.644 21.5223 15.1663 22.1667 15.1663Z" stroke="#8988F9" stroke-width="2" stroke-linecap="round" stroke-linejoin="round"/>
<path d="M5.83332 15.1663C6.47766 15.1663 6.99999 14.644 6.99999 13.9997C6.99999 13.3553 6.47766 12.833 5.83332 12.833C5.18899 12.833 4.66666 13.3553 4.66666 13.9997C4.66666 14.644 5.18899 15.1663 5.83332 15.1663Z" stroke="#8988F9" stroke-width="2" stroke-linecap="round" stroke-linejoin="round"/>
</svg>
