<svg width="20" height="20" viewBox="0 0 20 20" fill="none" xmlns="http://www.w3.org/2000/svg">
<path d="M5 8.33317V11.6665M15 8.33317V11.6665M1.66667 6.83317L1.66667 13.1665C1.66667 14.0999 1.66667 14.5666 1.84832 14.9232C2.00811 15.2368 2.26308 15.4917 2.57668 15.6515C2.9332 15.8332 3.39991 15.8332 4.33333 15.8332L15.6667 15.8332C16.6001 15.8332 17.0668 15.8332 17.4233 15.6515C17.7369 15.4917 17.9919 15.2368 18.1517 14.9232C18.3333 14.5666 18.3333 14.0999 18.3333 13.1665V6.83317C18.3333 5.89975 18.3333 5.43304 18.1517 5.07652C17.9919 4.76292 17.7369 4.50795 17.4233 4.34816C17.0668 4.16651 16.6001 4.16651 15.6667 4.1665L4.33333 4.1665C3.39991 4.1665 2.9332 4.1665 2.57668 4.34816C2.26308 4.50795 2.00811 4.76292 1.84832 5.07652C1.66667 5.43304 1.66667 5.89975 1.66667 6.83317ZM12.0833 9.99984C12.0833 11.1504 11.1506 12.0832 10 12.0832C8.84941 12.0832 7.91667 11.1504 7.91667 9.99984C7.91667 8.84924 8.84941 7.9165 10 7.9165C11.1506 7.9165 12.0833 8.84924 12.0833 9.99984Z" stroke="#E2E2E2" stroke-opacity="0.75" stroke-width="2" stroke-linecap="round" stroke-linejoin="round"/>
</svg>
