<svg width="20" height="20" viewBox="0 0 20 20" fill="none" xmlns="http://www.w3.org/2000/svg">
<path d="M15.4167 13.3333C17.0275 13.3333 18.3333 10.9082 18.3333 7.91667C18.3333 4.92512 17.0275 2.5 15.4167 2.5M15.4167 13.3333C13.8058 13.3333 12.5 10.9082 12.5 7.91667C12.5 4.92512 13.8058 2.5 15.4167 2.5M15.4167 13.3333L4.53629 11.3551C3.76338 11.2146 3.37692 11.1443 3.06444 10.9908C2.42872 10.6785 1.9553 10.1113 1.76179 9.42994C1.66667 9.09504 1.66667 8.70225 1.66667 7.91667C1.66667 7.13108 1.66667 6.73829 1.76179 6.40339C1.9553 5.72207 2.42872 5.15481 3.06444 4.84254C3.37692 4.68904 3.76338 4.61878 4.53629 4.47825L15.4167 2.5M4.16667 11.6667L4.49488 16.2617C4.52605 16.698 4.54163 16.9162 4.63656 17.0816C4.72014 17.2272 4.84574 17.3441 4.99691 17.4171C5.1686 17.5 5.38734 17.5 5.82483 17.5H7.31016C7.81028 17.5 8.06035 17.5 8.24543 17.4003C8.40805 17.3126 8.53695 17.1734 8.61186 17.0046C8.69711 16.8124 8.67793 16.5631 8.63957 16.0644L8.33333 12.0833" stroke="#E2E2E2" stroke-opacity="0.75" stroke-width="2" stroke-linecap="round" stroke-linejoin="round"/>
</svg>
