<svg width="20" height="20" viewBox="0 0 20 20" fill="none" xmlns="http://www.w3.org/2000/svg">
<path d="M7.79177 16.1429L8.2788 17.2383C8.42359 17.5644 8.65987 17.8414 8.95899 18.0358C9.25812 18.2303 9.60723 18.3337 9.96399 18.3337C10.3207 18.3337 10.6699 18.2303 10.969 18.0358C11.2681 17.8414 11.5044 17.5644 11.6492 17.2383L12.1362 16.1429C12.3096 15.7542 12.6012 15.4302 12.9695 15.217C13.3402 15.0032 13.769 14.9121 14.1945 14.9568L15.3862 15.0837C15.7409 15.1212 16.0989 15.055 16.4168 14.8931C16.7346 14.7312 16.9987 14.4806 17.177 14.1716C17.3554 13.8628 17.4405 13.5089 17.4217 13.1527C17.403 12.7966 17.2813 12.4535 17.0714 12.1651L16.3658 11.1957C16.1146 10.8479 15.9804 10.4293 15.9825 10.0003C15.9824 9.57248 16.1179 9.15562 16.3695 8.80959L17.0751 7.84014C17.285 7.55179 17.4067 7.20872 17.4254 6.85255C17.4442 6.49639 17.3591 6.14244 17.1807 5.83366C17.0024 5.52469 16.7383 5.27407 16.4205 5.11218C16.1026 4.9503 15.7446 4.8841 15.3899 4.92162L14.1982 5.04847C13.7727 5.09317 13.3439 5.00209 12.9732 4.78829C12.6042 4.57387 12.3125 4.24812 12.1399 3.85773L11.6492 2.76236C11.5044 2.4363 11.2681 2.15925 10.969 1.96482C10.6699 1.77039 10.3207 1.66693 9.96399 1.66699C9.60723 1.66693 9.25812 1.77039 8.95899 1.96482C8.65987 2.15925 8.42359 2.4363 8.2788 2.76236L7.79177 3.85773C7.61921 4.24812 7.32749 4.57387 6.95843 4.78829C6.58778 5.00209 6.15899 5.09317 5.73343 5.04847L4.53806 4.92162C4.18334 4.8841 3.82535 4.9503 3.50749 5.11218C3.18964 5.27407 2.92558 5.52469 2.74732 5.83366C2.56884 6.14244 2.48381 6.49639 2.50255 6.85255C2.52128 7.20872 2.64298 7.55179 2.85288 7.84014L3.55843 8.80959C3.81005 9.15562 3.94555 9.57248 3.94547 10.0003C3.94555 10.4282 3.81005 10.845 3.55843 11.1911L2.85288 12.1605C2.64298 12.4489 2.52128 12.7919 2.50255 13.1481C2.48381 13.5043 2.56884 13.8582 2.74732 14.167C2.92575 14.4758 3.18985 14.7263 3.50765 14.8882C3.82546 15.05 4.18336 15.1163 4.53806 15.079L5.72973 14.9522C6.15529 14.9075 6.58408 14.9986 6.95473 15.2124C7.32517 15.4262 7.61824 15.752 7.79177 16.1429Z" stroke="#E2E2E2" stroke-opacity="0.75" stroke-width="2" stroke-linecap="round" stroke-linejoin="round"/>
<path d="M9.9625 12.5003C11.3432 12.5003 12.4625 11.381 12.4625 10.0003C12.4625 8.61961 11.3432 7.50033 9.9625 7.50033C8.58179 7.50033 7.4625 8.61961 7.4625 10.0003C7.4625 11.381 8.58179 12.5003 9.9625 12.5003Z" stroke="#E2E2E2" stroke-opacity="0.75" stroke-width="2" stroke-linecap="round" stroke-linejoin="round"/>
</svg>
